# xmcd
#
# Track frame offsets:
#	150
#	17823
#	31235
#	42999
#	58144
#	74943
#	86550
#	103986
#	118865
#	134476
#	150628
#	171151
#	186430
#	199632
#
# Disc length: 2864 seconds
#
# Revision: 1
# Processed by: cddbd v1.5.2PL0 Copyright (c) Steve Scherf et al.
# Submitted via: audiograbber 1.83.01
#
DISCID=d30b2e0e
DTITLE=Namorni hudba Zoretti - Jugoslavske pisnicky 3
DYEAR=2010
DGENRE=Country
TTITLE0=Zaplakale oci mojej majke
TTITLE1=Hej daj mi jabuku
TTITLE2=Tvoja barka mala
TTITLE3=Dala by ti dala
TTITLE4=Pisi dragoj svojej kuci
TTITLE5=Ne igraj se mnom ti
TTITLE6=Spavaj, cvite moj
TTITLE7=Ne mogu da te prezalim
TTITLE8=Ne trazi suze
TTITLE9=Ne vjeruj mi nista
TTITLE10=Kad bih mogla
TTITLE11=Ljutit ce se moja majka
TTITLE12=Moj je dragi
TTITLE13=Zviezda na nebu
EXTD=
EXTT0=
EXTT1=
EXTT2=
EXTT3=
EXTT4=
EXTT5=
EXTT6=
EXTT7=
EXTT8=
EXTT9=
EXTT10=
EXTT11=
EXTT12=
EXTT13=
PLAYORDER=
